<svg width="512" height="512" viewBox="0 0 512 512" fill="none" xmlns="http://www.w3.org/2000/svg">
  <rect width="512" height="512" rx="128" fill="#FDF6EC"/>
  <circle cx="256" cy="256" r="176" fill="#8B9E7E"/>
  <circle cx="256" cy="256" r="148" fill="#A9B99D" opacity="0.2"/>
  <path
    d="M256 112C194.667 112 112 181.333 112 277.333C112 346.667 159.333 402.667 192 432C192 378.667 213.333 325.333 256 298.667C298.667 325.333 320 378.667 320 432C352.667 402.667 400 346.667 400 277.333C400 181.333 317.333 112 256 112Z"
    fill="#D4A574"
  />
  <path
    d="M256 192C234.667 234.667 224 277.333 224 341.333M256 192C277.333 234.667 288 277.333 288 341.333"
    stroke="white"
    stroke-width="22"
    stroke-linecap="round"
    opacity="0.72"
  />
</svg>
